<?xml version="1.0" standalone="no"?>
<!DOCTYPE svg PUBLIC "-//W3C//DTD SVG 20010904//EN"
 "http://www.w3.org/TR/2001/REC-SVG-20010904/DTD/svg10.dtd">
<svg version="1.0" xmlns="http://www.w3.org/2000/svg"
 width="393.000000pt" height="321.000000pt" viewBox="0 0 393.000000 321.000000"
 preserveAspectRatio="xMidYMid meet">

<g transform="translate(0.000000,321.000000) scale(0.100000,-0.100000)"
fill="#000000" stroke="none">
<path d="M580 3185 c-211 -45 -399 -193 -495 -389 -77 -158 -75 -122 -75
-1196 0 -1077 -3 -1037 77 -1200 39 -81 60 -109 137 -185 69 -69 111 -101 171
-132 150 -77 141 -76 681 -80 585 -5 529 -22 529 157 0 118 -1 122 -25 140
-24 18 -52 19 -485 22 -430 3 -463 5 -508 23 -103 42 -195 136 -233 238 -18
50 -19 86 -19 1017 0 894 1 969 18 1015 34 98 131 198 234 240 45 18 81 20
515 25 431 5 469 6 485 23 15 14 19 39 21 132 4 111 3 115 -22 140 l-25 25
-458 -1 c-348 0 -474 -4 -523 -14z"/>
<path d="M2342 3103 c-18 -9 -45 -32 -60 -51 l-27 -35 -3 -389 -3 -388 -575 0
c-641 0 -618 2 -672 -68 l-27 -35 0 -537 0 -537 27 -35 c54 -70 31 -68 672
-68 l576 0 0 -376 c0 -328 2 -380 16 -411 36 -75 134 -113 205 -79 20 9 342
324 741 724 625 625 707 711 713 745 18 93 54 51 -713 819 -389 390 -721 715
-738 723 -41 19 -90 19 -132 -2z"/>
</g>
</svg>
